<svg xmlns="http://www.w3.org/2000/svg" xmlns:xlink="http://www.w3.org/1999/xlink" zoomAndPan="magnify" preserveAspectRatio="xMidYMid meet" version="1.0" viewBox="71.5 123.52 255.12 107.58"><defs><g/></defs><g fill="#d798e9" fill-opacity="1"><g transform="translate(93.904818, 229.874992)"><g><path d="M 30.234375 0 L 30.234375 -1.96875 C 32.566406 -2.675781 34.160156 -4.195312 35.015625 -6.53125 C 35.878906 -8.863281 36.3125 -13.117188 36.3125 -19.296875 L 36.3125 -103.921875 L 28.875 -103.921875 C 22.082031 -103.921875 16.910156 -102.859375 13.359375 -100.734375 C 9.816406 -98.609375 6.734375 -94.8125 4.109375 -89.34375 L 2.4375 -89.640625 L 3.34375 -106.359375 L 81.59375 -106.359375 L 82.5 -89.640625 L 80.828125 -89.34375 C 78.296875 -94.8125 75.253906 -98.609375 71.703125 -100.734375 C 68.160156 -102.859375 62.945312 -103.921875 56.0625 -103.921875 L 48.921875 -103.921875 L 48.921875 -19.296875 C 48.921875 -13.117188 49.347656 -8.863281 50.203125 -6.53125 C 51.066406 -4.195312 52.664062 -2.675781 55 -1.96875 L 55 0 Z M 30.234375 0 "/></g></g></g><g fill="#d798e9" fill-opacity="1"><g transform="translate(178.987607, 229.874992)"><g><path d="M 87.96875 1.21875 L 16.40625 -91.921875 L 16.40625 -25.375 C 16.40625 -19.601562 16.8125 -15.144531 17.625 -12 C 18.4375 -8.863281 19.625 -6.5625 21.1875 -5.09375 C 22.757812 -3.625 24.660156 -2.582031 26.890625 -1.96875 L 26.890625 0 L 7.90625 0 L 7.90625 -1.96875 C 10.226562 -2.675781 11.820312 -4.195312 12.6875 -6.53125 C 13.550781 -8.863281 13.984375 -13.117188 13.984375 -19.296875 L 13.984375 -87.0625 C 13.984375 -93.34375 13.425781 -97.617188 12.3125 -99.890625 C 11.195312 -102.171875 9.117188 -103.664062 6.078125 -104.375 L 6.078125 -106.359375 L 20.96875 -106.359375 L 87.359375 -20.359375 L 87.359375 -80.984375 C 87.359375 -86.753906 86.953125 -91.234375 86.140625 -94.421875 C 85.335938 -97.617188 84.175781 -99.925781 82.65625 -101.34375 C 81.132812 -102.757812 79.207031 -103.769531 76.875 -104.375 L 76.875 -106.359375 L 96.03125 -106.359375 L 96.03125 -104.375 C 93.695312 -103.664062 92.097656 -102.171875 91.234375 -99.890625 C 90.378906 -97.617188 89.953125 -93.34375 89.953125 -87.0625 L 89.953125 1.21875 Z M 87.96875 1.21875 "/></g></g></g><g fill="#000000" fill-opacity="1"><g transform="translate(54.140232, 197.093893)"><g><path d="M 31.78125 15.0625 C 30.394531 15.207031 29.625 14.671875 29.46875 13.453125 C 29.3125 12.242188 29.65625 10.453125 30.5 8.078125 C 31.351562 5.710938 32.617188 2.867188 34.296875 -0.453125 C 35.972656 -3.785156 37.960938 -7.457031 40.265625 -11.46875 C 42.578125 -15.488281 45.101562 -19.769531 47.84375 -24.3125 C 50.582031 -28.851562 53.445312 -33.515625 56.4375 -38.296875 C 56.6875 -38.660156 56.570312 -38.90625 56.09375 -39.03125 C 55.613281 -39.15625 54.992188 -39.054688 54.234375 -38.734375 C 53.484375 -38.410156 52.800781 -37.738281 52.1875 -36.71875 C 48.675781 -31.144531 45.390625 -25.863281 42.328125 -20.875 C 39.265625 -15.882812 36.585938 -11.28125 34.296875 -7.0625 C 32.003906 -2.84375 30.238281 0.875 29 4.09375 C 27.769531 7.3125 27.203125 9.9375 27.296875 11.96875 C 27.390625 14 28.296875 15.320312 30.015625 15.9375 C 30.691406 16.175781 31.671875 16.003906 32.953125 15.421875 C 34.234375 14.835938 35.734375 13.953125 37.453125 12.765625 C 39.179688 11.585938 41.03125 10.203125 43 8.609375 C 44.96875 7.023438 46.984375 5.347656 49.046875 3.578125 C 51.109375 1.804688 53.117188 0.03125 55.078125 -1.75 C 57.035156 -3.539062 58.867188 -5.210938 60.578125 -6.765625 C 62.285156 -8.316406 63.769531 -9.664062 65.03125 -10.8125 C 65.09375 -10.9375 65.015625 -11.007812 64.796875 -11.03125 C 64.585938 -11.0625 64.40625 -11.019531 64.25 -10.90625 C 63.78125 -10.53125 62.992188 -9.832031 61.890625 -8.8125 C 60.785156 -7.800781 59.453125 -6.578125 57.890625 -5.140625 C 56.335938 -3.710938 54.632812 -2.175781 52.78125 -0.53125 C 50.9375 1.113281 49.046875 2.765625 47.109375 4.421875 C 45.171875 6.085938 43.257812 7.644531 41.375 9.09375 C 39.5 10.539062 37.738281 11.785156 36.09375 12.828125 C 34.445312 13.878906 33.007812 14.625 31.78125 15.0625 Z M 80.1875 -43.421875 C 77.75 -42.117188 75.234375 -41.238281 72.640625 -40.78125 C 70.054688 -40.320312 67.425781 -40.09375 64.75 -40.09375 C 62.070312 -40.09375 59.367188 -40.191406 56.640625 -40.390625 C 53.921875 -40.585938 51.207031 -40.722656 48.5 -40.796875 C 45.789062 -40.878906 43.101562 -40.742188 40.4375 -40.390625 C 37.769531 -40.035156 35.160156 -39.328125 32.609375 -38.265625 C 30.054688 -37.203125 27.566406 -35.625 25.140625 -33.53125 C 22.722656 -31.4375 20.425781 -28.664062 18.25 -25.21875 C 18.03125 -25.1875 17.863281 -25.125 17.75 -25.03125 C 17.644531 -24.9375 17.515625 -24.90625 17.359375 -24.9375 C 19.609375 -28.570312 21.957031 -31.5 24.40625 -33.71875 C 26.851562 -35.9375 29.394531 -37.613281 32.03125 -38.75 C 34.664062 -39.882812 37.34375 -40.648438 40.0625 -41.046875 C 42.789062 -41.453125 45.539062 -41.625 48.3125 -41.5625 C 51.082031 -41.5 53.851562 -41.367188 56.625 -41.171875 C 59.394531 -40.972656 62.132812 -40.863281 64.84375 -40.84375 C 67.550781 -40.832031 70.195312 -41.054688 72.78125 -41.515625 C 75.375 -41.984375 77.875 -42.863281 80.28125 -44.15625 C 80.925781 -44.488281 81.222656 -44.570312 81.171875 -44.40625 C 81.128906 -44.238281 80.800781 -43.910156 80.1875 -43.421875 Z M 80.1875 -43.421875 "/></g></g></g><g fill="#000000" fill-opacity="1"><g transform="translate(112.839453, 197.093893)"><g><path d="M 4.390625 2.765625 C 5.398438 2.242188 6.546875 1.519531 7.828125 0.59375 C 9.109375 -0.320312 10.429688 -1.332031 11.796875 -2.4375 C 13.171875 -3.550781 14.503906 -4.65625 15.796875 -5.75 C 17.085938 -6.84375 18.25 -7.847656 19.28125 -8.765625 C 20.3125 -9.691406 21.132812 -10.40625 21.75 -10.90625 C 21.90625 -10.988281 22.085938 -11.03125 22.296875 -11.03125 C 22.515625 -11.03125 22.597656 -10.972656 22.546875 -10.859375 C 21.554688 -10.023438 20.351562 -8.984375 18.9375 -7.734375 C 17.519531 -6.484375 16.003906 -5.179688 14.390625 -3.828125 C 12.773438 -2.472656 11.164062 -1.191406 9.5625 0.015625 C 7.957031 1.234375 6.460938 2.226562 5.078125 3 C 3.171875 4.113281 1.625 4.484375 0.4375 4.109375 C -0.75 3.742188 -1.15625 2.585938 -0.78125 0.640625 C -0.6875 -0.0351562 -0.445312 -0.875 -0.0625 -1.875 C 0.320312 -2.875 0.78125 -3.941406 1.3125 -5.078125 C 1.851562 -6.222656 2.421875 -7.335938 3.015625 -8.421875 C 3.617188 -9.515625 4.179688 -10.5 4.703125 -11.375 C 5.234375 -12.257812 5.664062 -12.929688 6 -13.390625 C 6.675781 -14.222656 7.382812 -14.832031 8.125 -15.21875 C 8.863281 -15.601562 9.429688 -15.738281 9.828125 -15.625 C 10.234375 -15.519531 10.253906 -15.144531 9.890625 -14.5 C 9.179688 -13.332031 8.382812 -12.015625 7.5 -10.546875 C 6.625 -9.085938 5.769531 -7.59375 4.9375 -6.0625 C 4.101562 -4.539062 3.378906 -3.117188 2.765625 -1.796875 C 2.148438 -0.472656 1.742188 0.644531 1.546875 1.5625 C 1.347656 2.488281 1.460938 3.082031 1.890625 3.34375 C 2.328125 3.601562 3.160156 3.410156 4.390625 2.765625 Z M 10.765625 -18.609375 C 10.359375 -18.609375 10.160156 -18.804688 10.171875 -19.203125 C 10.191406 -19.609375 10.347656 -20.054688 10.640625 -20.546875 C 10.929688 -21.046875 11.300781 -21.488281 11.75 -21.875 C 12.195312 -22.257812 12.65625 -22.421875 13.125 -22.359375 C 13.363281 -22.265625 13.441406 -22.023438 13.359375 -21.640625 C 13.285156 -21.253906 13.101562 -20.820312 12.8125 -20.34375 C 12.519531 -19.863281 12.1875 -19.453125 11.8125 -19.109375 C 11.445312 -18.773438 11.097656 -18.609375 10.765625 -18.609375 Z M 10.765625 -18.609375 "/></g></g></g><g fill="#000000" fill-opacity="1"><g transform="translate(129.049831, 197.093893)"><g><path d="M 20.546875 0.640625 C 19.960938 1.960938 20.007812 2.863281 20.6875 3.34375 C 21.363281 3.820312 22.550781 3.628906 24.25 2.765625 C 25.257812 2.242188 26.40625 1.519531 27.6875 0.59375 C 28.96875 -0.320312 30.289062 -1.332031 31.65625 -2.4375 C 33.03125 -3.550781 34.363281 -4.65625 35.65625 -5.75 C 36.945312 -6.84375 38.109375 -7.847656 39.140625 -8.765625 C 40.171875 -9.691406 40.992188 -10.40625 41.609375 -10.90625 C 41.765625 -10.988281 41.953125 -11.03125 42.171875 -11.03125 C 42.390625 -11.03125 42.46875 -10.972656 42.40625 -10.859375 C 41.414062 -10.023438 40.210938 -8.984375 38.796875 -7.734375 C 37.378906 -6.484375 35.863281 -5.179688 34.25 -3.828125 C 32.632812 -2.472656 31.023438 -1.191406 29.421875 0.015625 C 27.816406 1.234375 26.320312 2.226562 24.9375 3 C 23.675781 3.738281 22.515625 4.15625 21.453125 4.25 C 20.390625 4.34375 19.597656 4.09375 19.078125 3.5 C 18.554688 2.914062 18.445312 1.976562 18.75 0.6875 C 19.03125 -0.382812 19.507812 -1.550781 20.1875 -2.8125 C 20.863281 -4.082031 21.644531 -5.378906 22.53125 -6.703125 C 23.425781 -8.023438 24.335938 -9.289062 25.265625 -10.5 C 26.191406 -11.71875 27.03125 -12.816406 27.78125 -13.796875 C 28.53125 -14.785156 29.101562 -15.582031 29.5 -16.1875 C 29.90625 -16.789062 30.035156 -17.125 29.890625 -17.1875 C 29.234375 -17.25 28.375 -16.929688 27.3125 -16.234375 C 26.25 -15.546875 25.070312 -14.597656 23.78125 -13.390625 C 22.488281 -12.191406 21.15625 -10.875 19.78125 -9.4375 C 18.414062 -8.007812 17.070312 -6.578125 15.75 -5.140625 C 14.425781 -3.710938 13.207031 -2.414062 12.09375 -1.25 C 11.414062 -0.726562 10.867188 -0.554688 10.453125 -0.734375 C 10.046875 -0.921875 9.960938 -1.382812 10.203125 -2.125 C 10.453125 -2.863281 10.84375 -3.738281 11.375 -4.75 C 11.914062 -5.769531 12.53125 -6.847656 13.21875 -7.984375 C 13.914062 -9.128906 14.601562 -10.253906 15.28125 -11.359375 C 15.957031 -12.472656 16.566406 -13.484375 17.109375 -14.390625 C 17.648438 -15.296875 18.039062 -16.015625 18.28125 -16.546875 C 18.53125 -17.085938 18.550781 -17.359375 18.34375 -17.359375 C 17.289062 -17.390625 15.945312 -16.675781 14.3125 -15.21875 C 12.6875 -13.757812 10.664062 -11.519531 8.25 -8.5 C 5.832031 -5.476562 2.925781 -1.613281 -0.46875 3.09375 C -0.675781 3.40625 -0.988281 3.679688 -1.40625 3.921875 C -1.820312 4.171875 -2.226562 4.34375 -2.625 4.4375 C -3.03125 4.53125 -3.320312 4.5 -3.5 4.34375 C -3.6875 4.1875 -3.675781 3.878906 -3.46875 3.421875 C -2.820312 2.191406 -2.144531 0.914062 -1.4375 -0.40625 C -0.726562 -1.738281 0.117188 -3.257812 1.109375 -4.96875 C 2.097656 -6.675781 3.285156 -8.726562 4.671875 -11.125 C 4.910156 -11.5625 5.257812 -11.914062 5.71875 -12.1875 C 6.1875 -12.46875 6.648438 -12.660156 7.109375 -12.765625 C 7.578125 -12.878906 7.914062 -12.847656 8.125 -12.671875 C 8.34375 -12.503906 8.328125 -12.160156 8.078125 -11.640625 C 7.304688 -10.441406 6.660156 -9.425781 6.140625 -8.59375 C 5.617188 -7.757812 5.148438 -6.988281 4.734375 -6.28125 C 4.316406 -5.570312 3.867188 -4.820312 3.390625 -4.03125 C 2.910156 -3.25 2.347656 -2.320312 1.703125 -1.25 C 4.390625 -4.757812 6.734375 -7.742188 8.734375 -10.203125 C 10.734375 -12.671875 12.523438 -14.566406 14.109375 -15.890625 C 15.691406 -17.210938 17.191406 -17.90625 18.609375 -17.96875 C 19.535156 -17.90625 20.085938 -17.566406 20.265625 -16.953125 C 20.453125 -16.335938 20.351562 -15.515625 19.96875 -14.484375 C 19.59375 -13.453125 19.019531 -12.28125 18.25 -10.96875 C 17.476562 -9.65625 16.59375 -8.273438 15.59375 -6.828125 C 14.59375 -5.390625 13.566406 -3.945312 12.515625 -2.5 C 13.191406 -3.207031 14.078125 -4.160156 15.171875 -5.359375 C 16.265625 -6.554688 17.457031 -7.847656 18.75 -9.234375 C 20.039062 -10.617188 21.363281 -11.953125 22.71875 -13.234375 C 24.070312 -14.515625 25.375 -15.578125 26.625 -16.421875 C 27.875 -17.265625 28.960938 -17.734375 29.890625 -17.828125 C 30.128906 -17.859375 30.398438 -17.816406 30.703125 -17.703125 C 31.015625 -17.597656 31.265625 -17.390625 31.453125 -17.078125 C 31.640625 -16.773438 31.675781 -16.332031 31.5625 -15.75 C 31.457031 -15.164062 31.097656 -14.410156 30.484375 -13.484375 C 29.773438 -12.378906 28.953125 -11.21875 28.015625 -10 C 27.078125 -8.78125 26.117188 -7.546875 25.140625 -6.296875 C 24.171875 -5.054688 23.28125 -3.84375 22.46875 -2.65625 C 21.65625 -1.46875 21.015625 -0.367188 20.546875 0.640625 Z M 20.546875 0.640625 "/></g></g></g><g fill="#000000" fill-opacity="1"><g transform="translate(164.934392, 197.093893)"><g><path d="M 5.171875 1.15625 C 6.035156 0.9375 7.050781 0.46875 8.21875 -0.25 C 9.382812 -0.976562 10.613281 -1.832031 11.90625 -2.8125 C 13.207031 -3.800781 14.476562 -4.816406 15.71875 -5.859375 C 16.96875 -6.910156 18.097656 -7.890625 19.109375 -8.796875 C 20.128906 -9.703125 20.945312 -10.40625 21.5625 -10.90625 C 21.71875 -10.988281 21.90625 -11.03125 22.125 -11.03125 C 22.34375 -11.03125 22.421875 -10.972656 22.359375 -10.859375 C 21.554688 -10.179688 20.597656 -9.351562 19.484375 -8.375 C 18.378906 -7.40625 17.179688 -6.378906 15.890625 -5.296875 C 14.597656 -4.222656 13.296875 -3.191406 11.984375 -2.203125 C 10.671875 -1.222656 9.414062 -0.375 8.21875 0.34375 C 7.019531 1.070312 5.957031 1.554688 5.03125 1.796875 C 3.769531 1.890625 2.835938 1.613281 2.234375 0.96875 C 1.640625 0.320312 1.332031 -0.578125 1.3125 -1.734375 C 1.300781 -2.890625 1.53125 -4.179688 2 -5.609375 C 2.476562 -7.046875 3.15625 -8.507812 4.03125 -10 C 4.914062 -11.488281 5.953125 -12.90625 7.140625 -14.25 C 8.328125 -15.59375 9.613281 -16.722656 11 -17.640625 C 12.59375 -18.722656 13.90625 -19.289062 14.9375 -19.34375 C 15.96875 -19.40625 16.644531 -19.132812 16.96875 -18.53125 C 17.289062 -17.9375 17.179688 -17.160156 16.640625 -16.203125 C 16.109375 -15.253906 15.0625 -14.28125 13.5 -13.28125 C 11.945312 -12.28125 9.816406 -11.425781 7.109375 -10.71875 C 5.484375 -8.070312 4.351562 -5.816406 3.71875 -3.953125 C 3.082031 -2.085938 2.910156 -0.707031 3.203125 0.1875 C 3.503906 1.082031 4.160156 1.40625 5.171875 1.15625 Z M 7.71875 -11.5 C 9.957031 -12.113281 11.722656 -12.804688 13.015625 -13.578125 C 14.316406 -14.347656 15.234375 -15.101562 15.765625 -15.84375 C 16.304688 -16.582031 16.5625 -17.203125 16.53125 -17.703125 C 16.5 -18.210938 16.285156 -18.515625 15.890625 -18.609375 C 15.242188 -18.671875 14.550781 -18.460938 13.8125 -17.984375 C 13.070312 -17.515625 12.320312 -16.898438 11.5625 -16.140625 C 10.8125 -15.390625 10.101562 -14.597656 9.4375 -13.765625 C 8.78125 -12.929688 8.207031 -12.175781 7.71875 -11.5 Z M 7.71875 -11.5 "/></g></g></g><g fill="#000000" fill-opacity="1"><g transform="translate(180.86768, 197.093893)"><g><path d="M 60.734375 15.0625 C 61.960938 14.625 63.398438 13.878906 65.046875 12.828125 C 66.703125 11.785156 68.46875 10.539062 70.34375 9.09375 C 72.21875 7.644531 74.125 6.085938 76.0625 4.421875 C 78.007812 2.765625 79.90625 1.113281 81.75 -0.53125 C 83.59375 -2.175781 85.289062 -3.710938 86.84375 -5.140625 C 88.40625 -6.578125 89.738281 -7.800781 90.84375 -8.8125 C 91.957031 -9.832031 92.742188 -10.53125 93.203125 -10.90625 C 93.359375 -11.019531 93.539062 -11.0625 93.75 -11.03125 C 93.96875 -11.007812 94.046875 -10.9375 93.984375 -10.8125 C 92.722656 -9.664062 91.238281 -8.304688 89.53125 -6.734375 C 87.820312 -5.171875 85.984375 -3.503906 84.015625 -1.734375 C 82.046875 0.0351562 80.03125 1.8125 77.96875 3.59375 C 75.90625 5.382812 73.882812 7.070312 71.90625 8.65625 C 69.9375 10.238281 68.085938 11.625 66.359375 12.8125 C 64.640625 14 63.140625 14.875 61.859375 15.4375 C 60.585938 16.007812 59.628906 16.175781 58.984375 15.9375 C 57.992188 15.53125 57.445312 14.742188 57.34375 13.578125 C 57.238281 12.410156 57.46875 10.941406 58.03125 9.171875 C 58.601562 7.398438 59.421875 5.421875 60.484375 3.234375 C 61.546875 1.046875 62.742188 -1.253906 64.078125 -3.671875 C 65.421875 -6.085938 66.800781 -8.535156 68.21875 -11.015625 C 69.632812 -13.492188 71.003906 -15.898438 72.328125 -18.234375 C 73.648438 -20.578125 74.816406 -22.769531 75.828125 -24.8125 C 76.847656 -26.863281 77.613281 -28.675781 78.125 -30.25 C 78.632812 -31.820312 78.796875 -33.050781 78.609375 -33.9375 C 78.421875 -34.832031 77.773438 -35.296875 76.671875 -35.328125 C 75.003906 -35.390625 72.769531 -34.796875 69.96875 -33.546875 C 67.164062 -32.304688 63.945312 -30.359375 60.3125 -27.703125 C 56.6875 -25.054688 52.769531 -21.628906 48.5625 -17.421875 C 44.363281 -13.222656 40 -8.203125 35.46875 -2.359375 C 34.976562 -1.523438 34.320312 -0.429688 33.5 0.921875 C 32.6875 2.273438 31.828125 3.710938 30.921875 5.234375 C 30.015625 6.765625 29.148438 8.253906 28.328125 9.703125 C 27.515625 11.148438 26.820312 12.410156 26.25 13.484375 C 25.6875 14.566406 25.34375 15.289062 25.21875 15.65625 C 25 16.332031 24.648438 16.804688 24.171875 17.078125 C 23.703125 17.359375 23.257812 17.414062 22.84375 17.25 C 22.425781 17.082031 22.21875 16.722656 22.21875 16.171875 C 22.21875 15.367188 22.585938 14.195312 23.328125 12.65625 C 24.066406 11.113281 25.066406 9.269531 26.328125 7.125 C 27.585938 4.988281 29.019531 2.664062 30.625 0.15625 C 32.226562 -2.351562 33.90625 -4.96875 35.65625 -7.6875 C 37.414062 -10.414062 39.148438 -13.15625 40.859375 -15.90625 C 42.566406 -18.664062 44.15625 -21.34375 45.625 -23.9375 C 47.101562 -26.539062 48.375 -28.984375 49.4375 -31.265625 C 50.5 -33.546875 51.253906 -35.570312 51.703125 -37.34375 C 52.148438 -39.113281 52.195312 -40.53125 51.84375 -41.59375 C 51.488281 -42.65625 50.617188 -43.28125 49.234375 -43.46875 C 47.628906 -43.675781 45.90625 -43.414062 44.0625 -42.6875 C 42.21875 -41.96875 40.363281 -40.90625 38.5 -39.5 C 36.632812 -38.101562 34.851562 -36.488281 33.15625 -34.65625 C 31.46875 -32.832031 29.953125 -30.898438 28.609375 -28.859375 C 27.273438 -26.828125 26.222656 -24.828125 25.453125 -22.859375 C 27.390625 -21.566406 28.765625 -20.242188 29.578125 -18.890625 C 30.398438 -17.535156 30.8125 -16.226562 30.8125 -14.96875 C 30.8125 -13.707031 30.539062 -12.566406 30 -11.546875 C 29.457031 -10.523438 28.789062 -9.691406 28 -9.046875 C 27.21875 -8.398438 26.472656 -8.03125 25.765625 -7.9375 C 24.535156 -7.789062 23.539062 -8.203125 22.78125 -9.171875 C 22.03125 -10.140625 21.734375 -11.71875 21.890625 -13.90625 C 22.046875 -16.09375 22.832031 -18.941406 24.25 -22.453125 C 22.28125 -23.398438 20.351562 -23.820312 18.46875 -23.71875 C 16.59375 -23.613281 14.878906 -23.132812 13.328125 -22.28125 C 11.773438 -21.4375 10.457031 -20.367188 9.375 -19.078125 C 8.300781 -17.785156 7.570312 -16.414062 7.1875 -14.96875 C 6.800781 -13.519531 6.835938 -12.148438 7.296875 -10.859375 L 6.09375 -10.859375 C 5.820312 -12.390625 5.976562 -13.945312 6.5625 -15.53125 C 7.144531 -17.125 8.054688 -18.582031 9.296875 -19.90625 C 10.546875 -21.226562 12.003906 -22.304688 13.671875 -23.140625 C 15.335938 -23.972656 17.109375 -24.421875 18.984375 -24.484375 C 20.859375 -24.546875 22.738281 -24.082031 24.625 -23.09375 C 25.539062 -25.3125 26.722656 -27.484375 28.171875 -29.609375 C 29.617188 -31.734375 31.21875 -33.703125 32.96875 -35.515625 C 34.726562 -37.335938 36.570312 -38.925781 38.5 -40.28125 C 40.425781 -41.632812 42.328125 -42.664062 44.203125 -43.375 C 46.078125 -44.082031 47.863281 -44.359375 49.5625 -44.203125 C 51.15625 -44.078125 52.242188 -43.484375 52.828125 -42.421875 C 53.421875 -41.359375 53.609375 -39.929688 53.390625 -38.140625 C 53.171875 -36.359375 52.609375 -34.28125 51.703125 -31.90625 C 50.796875 -29.539062 49.625 -26.972656 48.1875 -24.203125 C 46.757812 -21.429688 45.144531 -18.53125 43.34375 -15.5 C 41.539062 -12.46875 39.625 -9.394531 37.59375 -6.28125 C 41.9375 -11.695312 46.160156 -16.328125 50.265625 -20.171875 C 54.378906 -24.023438 58.226562 -27.164062 61.8125 -29.59375 C 65.40625 -32.03125 68.625 -33.785156 71.46875 -34.859375 C 74.320312 -35.941406 76.640625 -36.40625 78.421875 -36.25 C 79.742188 -36.132812 80.566406 -35.550781 80.890625 -34.5 C 81.210938 -33.457031 81.160156 -32.066406 80.734375 -30.328125 C 80.304688 -28.585938 79.59375 -26.597656 78.59375 -24.359375 C 77.59375 -22.128906 76.410156 -19.75 75.046875 -17.21875 C 73.691406 -14.695312 72.273438 -12.144531 70.796875 -9.5625 C 69.328125 -6.976562 67.882812 -4.453125 66.46875 -1.984375 C 65.050781 0.472656 63.78125 2.765625 62.65625 4.890625 C 61.53125 7.015625 60.644531 8.867188 60 10.453125 C 59.351562 12.046875 59.066406 13.25 59.140625 14.0625 C 59.222656 14.875 59.753906 15.207031 60.734375 15.0625 Z M 26.328125 -8.59375 C 26.785156 -8.6875 27.304688 -9.023438 27.890625 -9.609375 C 28.484375 -10.191406 28.96875 -10.9375 29.34375 -11.84375 C 29.726562 -12.75 29.898438 -13.765625 29.859375 -14.890625 C 29.816406 -16.015625 29.425781 -17.191406 28.6875 -18.421875 C 27.945312 -19.660156 26.710938 -20.878906 24.984375 -22.078125 C 23.878906 -19.117188 23.1875 -16.722656 22.90625 -14.890625 C 22.632812 -13.054688 22.644531 -11.65625 22.9375 -10.6875 C 23.226562 -9.71875 23.6875 -9.085938 24.3125 -8.796875 C 24.945312 -8.503906 25.617188 -8.4375 26.328125 -8.59375 Z M 26.328125 -8.59375 "/></g></g></g><g fill="#000000" fill-opacity="1"><g transform="translate(268.431616, 197.093893)"><g><path d="M 5.171875 1.15625 C 6.035156 0.9375 7.050781 0.46875 8.21875 -0.25 C 9.382812 -0.976562 10.613281 -1.832031 11.90625 -2.8125 C 13.207031 -3.800781 14.476562 -4.816406 15.71875 -5.859375 C 16.96875 -6.910156 18.097656 -7.890625 19.109375 -8.796875 C 20.128906 -9.703125 20.945312 -10.40625 21.5625 -10.90625 C 21.71875 -10.988281 21.90625 -11.03125 22.125 -11.03125 C 22.34375 -11.03125 22.421875 -10.972656 22.359375 -10.859375 C 21.554688 -10.179688 20.597656 -9.351562 19.484375 -8.375 C 18.378906 -7.40625 17.179688 -6.378906 15.890625 -5.296875 C 14.597656 -4.222656 13.296875 -3.191406 11.984375 -2.203125 C 10.671875 -1.222656 9.414062 -0.375 8.21875 0.34375 C 7.019531 1.070312 5.957031 1.554688 5.03125 1.796875 C 3.769531 1.890625 2.835938 1.613281 2.234375 0.96875 C 1.640625 0.320312 1.332031 -0.578125 1.3125 -1.734375 C 1.300781 -2.890625 1.53125 -4.179688 2 -5.609375 C 2.476562 -7.046875 3.15625 -8.507812 4.03125 -10 C 4.914062 -11.488281 5.953125 -12.90625 7.140625 -14.25 C 8.328125 -15.59375 9.613281 -16.722656 11 -17.640625 C 12.59375 -18.722656 13.90625 -19.289062 14.9375 -19.34375 C 15.96875 -19.40625 16.644531 -19.132812 16.96875 -18.53125 C 17.289062 -17.9375 17.179688 -17.160156 16.640625 -16.203125 C 16.109375 -15.253906 15.0625 -14.28125 13.5 -13.28125 C 11.945312 -12.28125 9.816406 -11.425781 7.109375 -10.71875 C 5.484375 -8.070312 4.351562 -5.816406 3.71875 -3.953125 C 3.082031 -2.085938 2.910156 -0.707031 3.203125 0.1875 C 3.503906 1.082031 4.160156 1.40625 5.171875 1.15625 Z M 7.71875 -11.5 C 9.957031 -12.113281 11.722656 -12.804688 13.015625 -13.578125 C 14.316406 -14.347656 15.234375 -15.101562 15.765625 -15.84375 C 16.304688 -16.582031 16.5625 -17.203125 16.53125 -17.703125 C 16.5 -18.210938 16.285156 -18.515625 15.890625 -18.609375 C 15.242188 -18.671875 14.550781 -18.460938 13.8125 -17.984375 C 13.070312 -17.515625 12.320312 -16.898438 11.5625 -16.140625 C 10.8125 -15.390625 10.101562 -14.597656 9.4375 -13.765625 C 8.78125 -12.929688 8.207031 -12.175781 7.71875 -11.5 Z M 7.71875 -11.5 "/></g></g></g><g fill="#000000" fill-opacity="1"><g transform="translate(284.364904, 197.093893)"><g><path d="M -1.015625 11.640625 C -2.398438 11.921875 -3.429688 11.789062 -4.109375 11.25 C -4.785156 10.707031 -5.097656 9.925781 -5.046875 8.90625 C -5.003906 7.894531 -4.582031 6.78125 -3.78125 5.5625 C -2.988281 4.34375 -1.804688 3.179688 -0.234375 2.078125 C 1.335938 0.972656 3.296875 0.0664062 5.640625 -0.640625 C 5.546875 -1.285156 5.421875 -2.085938 5.265625 -3.046875 C 5.109375 -4.003906 4.960938 -5.03125 4.828125 -6.125 C 4.691406 -7.21875 4.59375 -8.253906 4.53125 -9.234375 C 4.40625 -11.117188 4.78125 -12.796875 5.65625 -14.265625 C 6.53125 -15.742188 7.691406 -16.945312 9.140625 -17.875 C 10.585938 -18.800781 12.128906 -19.335938 13.765625 -19.484375 C 15.023438 -19.640625 15.925781 -19.378906 16.46875 -18.703125 C 17.007812 -18.023438 17.125 -17.140625 16.8125 -16.046875 C 16.5 -14.953125 15.695312 -13.820312 14.40625 -12.65625 L 13.53125 -12.65625 C 14.882812 -13.757812 15.707031 -14.828125 16 -15.859375 C 16.289062 -16.890625 16.195312 -17.695312 15.71875 -18.28125 C 15.25 -18.875 14.503906 -19.046875 13.484375 -18.796875 C 12.410156 -18.546875 11.375 -18.066406 10.375 -17.359375 C 9.375 -16.648438 8.578125 -15.765625 7.984375 -14.703125 C 7.398438 -13.648438 7.1875 -12.457031 7.34375 -11.125 C 7.4375 -10.113281 7.554688 -9.148438 7.703125 -8.234375 C 7.859375 -7.328125 8.015625 -6.375 8.171875 -5.375 C 8.328125 -4.375 8.4375 -3.226562 8.5 -1.9375 C 10.039062 -2.457031 11.71875 -3.125 13.53125 -3.9375 C 15.351562 -4.757812 17.191406 -5.75 19.046875 -6.90625 C 20.910156 -8.0625 22.660156 -9.378906 24.296875 -10.859375 C 24.691406 -11.097656 24.984375 -11.1875 25.171875 -11.125 C 25.359375 -11.0625 25.359375 -10.957031 25.171875 -10.8125 C 23.078125 -8.957031 21 -7.414062 18.9375 -6.1875 C 16.875 -4.957031 14.957031 -3.960938 13.1875 -3.203125 C 11.414062 -2.453125 9.867188 -1.847656 8.546875 -1.390625 C 8.546875 -0.0664062 8.359375 1.285156 7.984375 2.671875 C 7.617188 4.054688 7.039062 5.375 6.25 6.625 C 5.46875 7.875 4.46875 8.9375 3.25 9.8125 C 2.039062 10.6875 0.617188 11.296875 -1.015625 11.640625 Z M -0.375 10.90625 C 0.269531 10.71875 0.9375 10.273438 1.625 9.578125 C 2.320312 8.890625 2.972656 8.035156 3.578125 7.015625 C 4.179688 6.003906 4.675781 4.878906 5.0625 3.640625 C 5.445312 2.410156 5.640625 1.164062 5.640625 -0.09375 C 3.390625 0.613281 1.523438 1.503906 0.046875 2.578125 C -1.429688 3.660156 -2.523438 4.765625 -3.234375 5.890625 C -3.941406 7.015625 -4.296875 8.019531 -4.296875 8.90625 C -4.296875 9.800781 -3.960938 10.457031 -3.296875 10.875 C -2.640625 11.289062 -1.664062 11.300781 -0.375 10.90625 Z M -0.375 10.90625 "/></g></g></g><g fill="#000000" fill-opacity="1"><g transform="translate(303.115383, 197.093893)"><g><path d="M 22.625 -24.15625 C 22.625 -24.707031 21.984375 -25.015625 20.703125 -25.078125 C 19.429688 -25.140625 17.519531 -24.878906 14.96875 -24.296875 C 13.882812 -22.503906 12.726562 -20.546875 11.5 -18.421875 C 10.269531 -16.296875 9.046875 -14.125 7.828125 -11.90625 C 6.609375 -9.695312 5.46875 -7.5625 4.40625 -5.5 C 3.34375 -3.4375 2.429688 -1.582031 1.671875 0.0625 C 0.921875 1.71875 0.425781 3.035156 0.1875 4.015625 C 0.03125 4.660156 -0.0234375 5.289062 0.015625 5.90625 C 0.0664062 6.519531 0.289062 6.953125 0.6875 7.203125 C 1.09375 7.453125 1.738281 7.375 2.625 6.96875 C 3.550781 6.507812 4.609375 5.816406 5.796875 4.890625 C 6.984375 3.972656 8.238281 2.910156 9.5625 1.703125 C 10.882812 0.503906 12.195312 -0.738281 13.5 -2.03125 C 14.8125 -3.320312 16.0625 -4.5625 17.25 -5.75 C 18.4375 -6.9375 19.488281 -7.984375 20.40625 -8.890625 C 21.332031 -9.796875 22.046875 -10.46875 22.546875 -10.90625 C 22.691406 -10.988281 22.875 -11.03125 23.09375 -11.03125 C 23.3125 -11.03125 23.390625 -10.972656 23.328125 -10.859375 C 22.523438 -10.179688 21.519531 -9.25 20.3125 -8.0625 C 19.113281 -6.875 17.789062 -5.546875 16.34375 -4.078125 C 14.894531 -2.617188 13.398438 -1.148438 11.859375 0.328125 C 10.328125 1.804688 8.804688 3.160156 7.296875 4.390625 C 5.785156 5.617188 4.382812 6.601562 3.09375 7.34375 C 2.019531 7.957031 1.132812 8.179688 0.4375 8.015625 C -0.25 7.847656 -0.753906 7.445312 -1.078125 6.8125 C -1.410156 6.175781 -1.578125 5.488281 -1.578125 4.75 C -1.546875 3.488281 -1.226562 1.960938 -0.625 0.171875 C -0.0195312 -1.609375 0.753906 -3.546875 1.703125 -5.640625 C 2.660156 -7.734375 3.707031 -9.847656 4.84375 -11.984375 C 5.988281 -14.128906 7.132812 -16.203125 8.28125 -18.203125 C 9.4375 -20.203125 10.492188 -21.988281 11.453125 -23.5625 C 10.191406 -23.15625 8.988281 -22.882812 7.84375 -22.75 C 6.707031 -22.613281 5.832031 -22.742188 5.21875 -23.140625 C 4.9375 -23.296875 4.875 -23.492188 5.03125 -23.734375 C 5.1875 -23.984375 5.382812 -24.140625 5.625 -24.203125 C 5.875 -24.265625 5.96875 -24.109375 5.90625 -23.734375 C 6.15625 -23.335938 6.847656 -23.207031 7.984375 -23.34375 C 9.128906 -23.488281 10.410156 -23.789062 11.828125 -24.25 C 12.347656 -25.113281 12.914062 -26.035156 13.53125 -27.015625 C 14.144531 -28.003906 14.726562 -28.941406 15.28125 -29.828125 C 15.84375 -30.722656 16.289062 -31.421875 16.625 -31.921875 C 17.207031 -32.710938 17.804688 -33.207031 18.421875 -33.40625 C 19.046875 -33.613281 19.488281 -33.570312 19.75 -33.28125 C 20.007812 -32.988281 19.90625 -32.488281 19.4375 -31.78125 C 19.351562 -31.65625 19.09375 -31.238281 18.65625 -30.53125 C 18.226562 -29.820312 17.722656 -28.972656 17.140625 -27.984375 C 16.554688 -27.003906 15.953125 -26.003906 15.328125 -24.984375 C 16.503906 -25.265625 17.679688 -25.472656 18.859375 -25.609375 C 20.046875 -25.742188 21.070312 -25.757812 21.9375 -25.65625 C 22.800781 -25.550781 23.296875 -25.265625 23.421875 -24.796875 C 23.546875 -24.585938 23.53125 -24.390625 23.375 -24.203125 C 23.21875 -24.015625 23.050781 -23.90625 22.875 -23.875 C 22.707031 -23.84375 22.625 -23.9375 22.625 -24.15625 Z M 22.625 -24.15625 "/></g></g></g></svg>